<!DOCTYPE svg PUBLIC "-//W3C//DTD SVG 1.1//EN" "http://www.w3.org/Graphics/SVG/1.1/DTD/svg11.dtd">
<!-- Uploaded to: SVG Repo, www.svgrepo.com, Transformed by: SVG Repo Mixer Tools -->
<svg version="1.1" id="Icons" xmlns="http://www.w3.org/2000/svg" xmlns:xlink="http://www.w3.org/1999/xlink" viewBox="0 0 32 32" xml:space="preserve" width="800px" height="800px" fill="#f1f1f1" stroke="#f1f1f1">
<g id="SVGRepo_bgCarrier" stroke-width="0"/>
<g id="SVGRepo_tracerCarrier" stroke-linecap="round" stroke-linejoin="round"/>
<g id="SVGRepo_iconCarrier"> <style type="text/css"> .st0{fill:none;stroke:#f1f1f1;stroke-width:2;stroke-linecap:round;stroke-linejoin:round;stroke-miterlimit:10;} </style> <path d="M21,2H11C9.3,2,8,3.3,8,5v22c0,1.7,1.3,3,3,3h10c1.7,0,3-1.3,3-3V5C24,3.3,22.7,2,21,2z M17,27h-2c-0.6,0-1-0.4-1-1 s0.4-1,1-1h2c0.6,0,1,0.4,1,1S17.6,27,17,27z M22,22H10V8h12V22z"/> </g>
</svg>